<?xml version="1.0" encoding="UTF-8"?><svg id="Ebene_1" xmlns="http://www.w3.org/2000/svg" viewBox="0 0 3106.527 1651.098"><defs><style>.cls-1{fill:none;stroke:#000;stroke-miterlimit:10;}</style></defs><path class="cls-1" d="M492.951,900.108c210.995-230.929,210.553-462.679.431-695.251"/><path class="cls-1" d="M499.741,906.223c213.074-235.506,213.099-471.333-1.059-707.377"/><path class="cls-1" d="M498.895,198.84c-.059.375-.124.749-.146.909"/><path class="cls-1" d="M493.749,204.749c-.471.099-1.326.26-1.827.26-3.914,0-7.087-3.173-7.087-7.087s3.173-7.087,7.087-7.087,7.087,3.173,7.087,7.087c0,.165-.054.542-.113.918"/><path class="cls-1" d="M499.749,905.749c.041.223.044.879.053,1.05.217,3.908-2.775,7.252-6.683,7.469-3.908.217-7.252-2.775-7.469-6.683-.217-3.908,2.775-7.252,6.683-7.469.207-.012,1.212-.374,1.416-.367"/><polyline class="cls-1" points="355.262 271.905 441.364 271.905 441.364 288.912 355.262 288.912"/><polyline class="cls-1" points="355.262 816.072 441.364 816.072 441.364 833.08 355.262 833.08"/><path d="M330.009,1651.098c.643,0,.645-1,0-1s-.645,1,0,1h0Z"/><path class="cls-1" d="M355.262,271.905c-.609-32.174,29.475-63.14,53.374-84.689,23.641-21.316,25.618-39.494,38.934-68.789,5.956-13.104,13.68-18.83,25.608-30.43,16.608-16.152,42.253-21.956,55.659-40.85,8.897-12.54,9.448-32.509,23.134-39.515,22.68-11.61,45.499-4.05,55.81,15.548s6.321,43.884-2.712,64.103c-9.033,20.219-22.64,38.096-32.161,58.09-5.864,12.315-10.181,26.376-6.43,39.49,4.265,14.914,17.757,25.001,30.394,33.997,22.201,15.804,44.54,31.924,62.382,52.523,17.842,20.598,31.032,46.382,31.571,73.628.636,32.193-16.164,64.065-9.415,95.549,6.438,30.032,33.135,52.962,38.19,83.258,3.865,23.164-5.626,46.242-14.894,67.821s-18.717,44.686-14.767,67.836c3.95,23.15,27.368,44.507,49.671,37.155,15.204-5.012,24.228-21.271,26.336-37.141,2.108-15.869-1.19-31.882-2.826-47.807-1.933-18.805,4.057-44.131,22.949-44.791,15.511-.542,24.853,16.802,29.14,31.719,6.784,23.608,10.495,48.098,11.011,72.656.691,32.929-6.269,69.358-32.309,89.526-38.786,30.038-103.103,11.649-136.628,47.464-10.591,11.315-16.196,26.494-26.311,38.236-13.191,15.314-32.68,23.365-49.395,34.728s-32.048,29.552-29.045,49.539"/><path class="cls-1" d="M553.021,931.699c2.783,28.195,30.298,52.603,25.824,83.058-1.596,10.863-7.97,20.445-15.216,28.694-13.847,15.764-37.957,28.35-54.932,16.018-19.917-14.47-10.269-47.516-23.732-68.126-8.283-12.68-23.655-18.243-37.275-24.868-17.511-8.517-34.407-21.038-41.422-39.203-4.167-10.79-4.502-22.698-8.028-33.713-7.28-22.742-34.7-38.039-42.487-60.505"/><path class="cls-1" d="M355.574,816.257c15.291-40.656,73.377-34.887,97.721-63.52,18.02-21.194,23.55-57.823,41.422-79.142,12.776-15.241,31.64-26.013,39.215-44.402,5.489-13.325,4.039-28.527,8.132-42.346,3.518-11.874,10.954-22.174,15.748-33.592,8.331-19.84,8.203-43.074-.346-62.821-5.236-12.094-13.534-23.15-15.516-36.179-.962-6.322-.366-12.783-1.008-19.145-2.231-22.135-42.375-38.987-62.833-47.726-20.382-8.707-24.297-44.049-74.083-52.394-13.517-2.266-43.537-21.23-48.766-46.078"/><path class="cls-1" d="M905.84,900.058c210.995-230.929,210.553-462.679.431-695.251"/><path class="cls-1" d="M912.63,906.173c213.074-235.506,213.099-471.333-1.059-707.377"/><path class="cls-1" d="M911.784,198.79c-.059.375-.124.749-.146.909"/><path class="cls-1" d="M906.638,204.699c-.471.099-1.326.26-1.827.26-3.914,0-7.087-3.173-7.087-7.087s3.173-7.087,7.087-7.087,7.087,3.173,7.087,7.087c0,.165-.054.542-.113.918"/><path class="cls-1" d="M912.638,905.699c.041.223.044.879.053,1.05.217,3.908-2.775,7.252-6.683,7.469-3.908.217-7.252-2.775-7.469-6.683s2.775-7.252,6.683-7.469c.207-.012,1.212-.374,1.416-.367"/><polyline class="cls-1" points="768.151 271.803 854.254 271.803 854.254 288.811 768.151 288.811"/><polyline class="cls-1" points="768.151 816.022 854.254 816.022 854.254 833.03 768.151 833.03"/><path class="cls-1" d="M768.151,271.803c16.102-83.589,48.409-86.68,66.448-100.853,15.434-12.126,28.551-57.267,43.382-70.123,30.758-26.663,69.062-3.805,82.559-42.208,4.283-12.185,13.739-35.256,20.424-46.308,10.09-16.681,48.022-10.823,56.439,3.755,2.787,4.827,3.166,33.957-2.088,52.731s-18.401,34.404-33.128,47.179c-11.688,10.139-24.721,19.034-34.076,31.358-9.355,12.324-14.447,29.462-7.765,43.416,9.022,18.84,33.256,22.921,53.208,29.109,37.696,11.691,71.389,41.814,78.771,80.585,5.39,28.31-3.293,57.933,2.392,86.186,10.491,52.135,67.998,94.004,55.716,145.746-5.759,24.262-26.724,44.518-25.848,69.439.807,22.966,20.295,42.207,20.724,65.183.968,51.841-87.411,67.526-90.04,119.309-1.048,20.638,13.019,40.506,9.182,60.811-7.254,38.382-66.648,41.823-84.116,76.762-22.302,44.605,40.258,63.16,23.019,109.955-9.672,26.255-43.646,38.056-70.027,28.735-26.382-9.321-30.038-12.54-45.287-30.135-12.915-14.902-27.816-42.027-33.531-60.901-11.941-39.437,5.635-45.8-16.729-72.45-18.121-21.593-69.203-41.264-69.203-66.248"/><path class="cls-1" d="M768.151,816.022c8.449-23.868,38.578-53.09,61.784-63.216,59.951-26.16,104.41-80.238,131.118-139.948,14.312-31.996,26.151-57.128,19.911-91.62-3.406-18.831-20.488-44.275-24.209-63.046-3.382-17.061-.632-34.954-6.731-51.242-15.681-41.881-35.843-52.244-72.626-63.055-12.989-3.818-66.728,1.889-109.247-55.084"/><path class="cls-1" d="M1284.965,902.695c210.995-230.929,210.553-462.679.431-695.251"/><path class="cls-1" d="M1291.755,908.81c213.074-235.506,213.099-471.333-1.059-707.377"/><path class="cls-1" d="M1290.91,201.427c-.059.375-.124.749-.146.909"/><path class="cls-1" d="M1285.763,207.336c-.471.099-1.326.26-1.827.26-3.914,0-7.087-3.173-7.087-7.087s3.173-7.087,7.087-7.087,7.087,3.173,7.087,7.087c0,.165-.054.542-.113.918"/><path class="cls-1" d="M1291.763,908.336c.041.223.044.879.053,1.05.217,3.908-2.775,7.252-6.683,7.469-3.908.217-7.252-2.775-7.469-6.683-.217-3.908,2.775-7.252,6.683-7.469.207-.012,1.212-.374,1.416-.367"/><polyline class="cls-1" points="1147.296 271.803 1233.399 271.803 1233.399 288.811 1147.296 288.811"/><polyline class="cls-1" points="1147.286 816.037 1233.389 816.037 1233.389 833.045 1147.286 833.045"/><path class="cls-1" d="M1147.296,288.811c13.654,24.395,17.258,42.339,43.032,53.169,26.065,10.952,44.131,6.162,70.594,15.178,26.463,9.016,67.546,38.359,79.018,63.854,20.263,45.03-11.003,99.842,5.939,146.223,2.786,7.627,6.832,14.817,8.744,22.71,1.663,6.867,1.646,14.053.794,21.066-2.962,24.38-16.36,47.315-36.143,61.869-5.845,4.3-12.403,8.092-16.283,14.223-6.822,10.781-3.24,24.809-4.66,37.487-2.105,18.794-21.819,25.804-38.348,34.992-16.529,9.188-36.918,5.693-59.441,12.506-9.905,2.996-28.465,14.171-37.362,19.455-8.897,5.284-14.288,13.851-15.392,24.336"/><path class="cls-1" d="M1402.353,981.649c-10.484,21.5-23.039,86.712-69.108,83.328-23.855-1.752-23.771-35.721-36.289-56.104-11.692-19.039-30.222-28.263-30.222-28.263,0,0-17.366-5.366-36.833-19.301-18.97-13.579-18.419-40.862-23.325-63.67-4.966-23.088-59.267-36.7-58.789-64.839"/><path class="cls-1" d="M1147.296,271.803c14.052-45.249,14.581-94.598,60.242-107.246,25.561-7.081,55.995-9.902,70.684-31.986,9.89-14.871,10.045-35.708,23.246-47.737,11.852-10.801,29.829-10.504,44.699-16.506,20.994-8.474,34.327-28.74,50.826-44.242,16.499-15.502,46.476-29.55,64.656-16.058,15.685,11.641,12.552,38.69,4.935,56.676s-21.287,32.743-30.214,50.116c-9.883,19.235-13.651,41.555-10.63,62.969,1.965,13.923,14.189,30.778,26.455,23.905,3.627-2.032,5.993-5.788,9.478-8.056,8.716-5.672,21.375.754,25.173,10.435s.925,20.737-3.675,30.064c-14.317,29.026-45.594,53.283-41.527,85.392,3.529,27.86,31.89,44.25,50.804,65.007,20.042,21.995,30.602,52.352,28.537,82.037-1.752,25.19-12.109,49.581-10.775,74.797,1.333,25.216,22.107,52.767,46.745,47.235,26.851-6.028,31.756-42.716,25.126-69.425-1.92-7.734-4.667-11.893-11.078-16.625s-13.436.296-16.316,7.726c-3.309,8.537-3.143,16.453-12.148,14.793-17.613-10.632-13.4-41.027,4.806-50.61,18.205-9.583,52.046-10.869,64.752,5.313,12.706,16.181,26.275,45.764,26.282,66.337.007,21.316-13.73,53.54-26.416,70.671-16.571,22.378-46.793,38.582-71.896,50.631-25.104,12.049-46.979,19.033-48.917,46.811-1.471,21.076-.415,39.845-4.809,60.51-8.153,38.339-65.483,43.942-83.242,78.885-19.795,38.949,20.568,89.891-.746,128.03"/><path class="cls-1" d="M1697.837,900.803c210.995-230.929,210.553-462.679.431-695.251"/><path class="cls-1" d="M1704.627,906.918c213.074-235.506,213.099-471.333-1.059-707.377"/><path class="cls-1" d="M1703.781,199.534c-.059.375-.124.749-.146.909"/><path class="cls-1" d="M1698.635,205.443c-.471.099-1.326.26-1.827.26-3.914,0-7.087-3.173-7.087-7.087s3.173-7.087,7.087-7.087,7.087,3.173,7.087,7.087c0,.165-.054.542-.113.918"/><path class="cls-1" d="M1704.635,906.443c.041.223.044.879.053,1.05.217,3.908-2.775,7.252-6.683,7.469-3.908.217-7.252-2.775-7.469-6.683-.217-3.908,2.775-7.252,6.683-7.469.207-.012,1.212-.374,1.416-.367"/><polyline class="cls-1" points="1560.148 272.176 1646.25 272.176 1646.25 289.183 1560.148 289.183"/><polyline class="cls-1" points="1560.148 815.88 1646.25 815.88 1646.25 832.888 1560.148 832.888"/><path class="cls-1" d="M1560.501,816.043c15.233-42.213,80.051-61.725,119.447-83.217,32.111-17.518,54.634-48.689,71.126-81.339,26.07-51.611,38.947-115.674,10.838-166.203-9.87-17.743-24.451-33.186-30.143-52.675-4.963-16.993-2.952-36.413-12.773-51.142-5.519-8.277-14.131-13.938-22.815-18.791-29.102-16.264-50.147-30.104-83.405-32.417-30.958-2.153-40.936-12.33-52.627-41.076"/><path class="cls-1" d="M1594.656,897.618c-2.855-37.741-41.483-47.987-34.068-64.882"/><path class="cls-1" d="M1560.148,272.176c4.44-45.431,26.155-77.253,68.196-95.036,42.23-17.863,60.562-42.293,91.205-76.402,16.116-17.939,15.926-42.683,28.014-63.549,12.088-20.866,43.707-42.041,66.006-32.862,15.788,6.498,23.931,28.746,24.045,45.819.385,57.624-69.657,102.481-57.772,158.867,7.611,36.107,45.026,55.956,72.558,80.525,39.202,34.983,62.056,87.576,60.883,140.104-.79,35.349-11.685,71.856-.082,105.256,8.141,23.437,26.465,42.084,35.826,65.06,11.703,28.723,7.694,63.305-10.27,88.589-26.859,37.804-82.774,58.236-87.133,104.404-1.019,10.789,1.176,21.821-1.018,32.434-5.35,25.884-33.448,39.493-49.182,60.73-14.935,20.158-17.952,48.516-7.593,71.366,6.729,14.841,18.451,15.105,24.342,30.298,9.887,25.496-.554,57.775-24.395,71.168-23.842,13.393-58.107,4.443-70.93-19.71-12.823-24.154-6.298-47.468-28.971-62.76-22.541-15.203-31.896-5.305-57.924-13.164"/><path class="cls-1" d="M2078.745,900.5c210.995-230.929,210.553-462.679.431-695.251"/><path class="cls-1" d="M2085.536,906.615c213.074-235.506,213.099-471.333-1.059-707.377"/><path class="cls-1" d="M2084.69,199.232c-.059.375-.124.749-.146.909"/><path class="cls-1" d="M2079.543,205.141c-.471.099-1.326.26-1.827.26-3.914,0-7.087-3.173-7.087-7.087s3.173-7.087,7.087-7.087,7.087,3.173,7.087,7.087c0,.165-.054.542-.113.918"/><path class="cls-1" d="M2085.543,906.141c.041.223.044.879.053,1.05.217,3.908-2.775,7.252-6.683,7.469-3.908.217-7.252-2.775-7.469-6.683s2.775-7.252,6.683-7.469c.207-.012,1.212-.374,1.416-.367"/><polyline class="cls-1" points="1941.088 271.803 2027.191 271.803 2027.191 288.811 1941.088 288.811"/><polyline class="cls-1" points="1941.058 815.88 2027.16 815.88 2027.16 832.888 1941.058 832.888"/><path class="cls-1" d="M2092.266,966.155c-11.087-1.956-21.752,13.619-35.663,15.13-34.244,3.72-57.264-21.213-57.264-21.213,0,0-19.895-14.936-18.638-47.032.401-10.23,5.003-13.074,2.685-21.196-4.669-16.361-19.954-19.415-27.218-28.805-7.703-9.957-12.91-16.739-15.11-30.15"/><path class="cls-1" d="M1941.088,271.803c-2.747-39.118,24.534-84.713,57.706-105.626,52.239-32.933,78.661-27.549,119.085-74.233,15.499-17.9,22.51-41.749,37.033-60.45,14.523-18.701,49.438-39.127,67.795-24.171,15.649,12.75,8.457,48.936-.143,64-7.965,13.952-16.946,39.301-20.277,59.21-4.536,27.119,5.765,49.717,21.925,71.963,16.16,22.246,35.159,43.639,42.308,70.189,8.84,32.831-1.858,68.854,8.606,101.204,9.861,30.486,36.703,52.312,51.278,80.847,13.741,26.902,15.68,59.577,5.218,87.915-12.665,34.305-42.525,63.039-43.514,99.594-.802,29.624,18.1,58.207,12.695,87.344-4.773,25.735-26.856,43.948-45.569,62.249-24.256,23.722-45.161,51.621-56.481,83.604-11.32,31.983-12.362,38.385,1.616,69.299,10.97,24.262,30.473,28.15,39.756,53.107,9.283,24.956,2.587,57.87-23.012,65.196-10.34,2.959-29.201.766-39.512-2.292-44.161-13.095-34.579-80.968-85.335-94.598"/><path class="cls-1" d="M1941.632,815.808c-.198-30.323,45.587-42.961,73.33-55.201,41.613-18.36,75.952-62.512,86.85-106.67,4.491-18.197,2.082-37.566,6.643-55.746,6.589-26.259,26.737-46.815,38.088-71.394,19.614-42.475,9.91-95.832-20.813-131.115-30.723-35.283-74.443-34.694-117.51-52.971-15.081-6.4-55.988-14.224-67.132-53.899"/><path class="cls-1" d="M2499.946,899.038c209.878-231.945,208.318-463.689-2.923-695.245"/><path class="cls-1" d="M2506.766,905.121c211.936-236.531,210.822-472.356-4.472-707.364"/><path class="cls-1" d="M2502.507,197.749c-.058.376-.121.75-.142.91"/><path class="cls-1" d="M2497.389,203.683c-.471.101-1.325.266-1.825.269-3.914.019-7.102-3.139-7.121-7.052s3.139-7.102,7.052-7.121c3.914-.019,7.102,3.139,7.121,7.052,0,.165-.051.543-.109.918"/><path class="cls-1" d="M2506.771,904.646c.042.223.048.878.058,1.05.236,3.907-2.74,7.265-6.646,7.501s-7.265-2.74-7.501-6.646,2.74-7.265,6.646-7.501c.207-.013,1.21-.379,1.414-.374"/><polyline class="cls-1" points="2359.213 271.481 2445.314 271.179 2445.425 287.884 2359.324 288.187"/><polyline class="cls-1" points="2361.836 816.183 2447.937 815.88 2448.048 832.586 2361.947 832.888"/><path class="cls-1" d="M2359.213,271.481c3.595-38.681,14.335-41.022,42.779-59.649,33.338-21.832,26.124-56.667,59.882-81.494,34.652-25.484,50.804-27.94,66.291-58.207,13.972-27.309,18.642-49.324,40.057-61.719,45.021-26.057,78.86,3.466,79.223,39.875.535,53.738-67.28,82.209-67.722,139.998-.156,20.41,23.385,33.489,42.366,40.992,18.981,7.503,39.518,10.409,58.562,17.75,45.877,17.685,47.212,66.5,52.004,115.434,1.924,19.643-.512,39.646,2.941,59.079,7.877,44.344,45.492,81.49,44.007,126.503-1.689,51.198-18.331,81.065-55.718,116.083-37.388,35.019-67.878,84.923-57.931,135.175,5.321,26.882,21.815,54.103,12.314,79.807-16.502,44.644-87.906,18.998-93.207,66.299-2.853,25.46,3.518,28.926,5.283,54.485,2.432,35.223-28.18,60.063-63.287,63.813-35.148,3.755-52.562-6.088-78.054-30.575-25.492-24.487-36.743-64.36-23.37-97.081,5.103-12.486,1.614-4.394,6.2-17.079,13.804-38.177-57.272-48.076-69.887-88.082"/><path class="cls-1" d="M2361.836,816.183c-5.114-45.904,87-63.169,127.241-85.838,40.242-22.669,64.921-90.479,73.331-135.895,7.803-42.136-9.685-82.269-12.553-125.026-2.161-32.212,10.155-68.081-7.921-94.831-13.797-20.417-59.875-27.287-84.516-27.229-24.641.058-18.331-2.255-42.798-5.181-24.467-2.927-49.677-30.004-55.297-53.996"/><polyline class="cls-1" points="974.068 1191.382 924.97 1219.724 916.466 1204.999 965.564 1176.658"/><polyline class="cls-1" points="716.693 1042.913 716.697 1099.604 733.701 1099.606 733.697 1042.916"/><polyline class="cls-1" points="475.786 1191.46 524.884 1219.801 533.387 1205.077 484.29 1176.735"/><polyline class="cls-1" points="483.977 1474.364 533.071 1446.015 524.571 1431.288 475.477 1459.637"/><polyline class="cls-1" points="733.076 1608.723 733.071 1552.032 716.068 1552.03 716.072 1608.72"/><polyline class="cls-1" points="973.982 1460.176 924.885 1431.835 916.381 1446.559 965.479 1474.901"/><line class="cls-1" x1="598.212" y1="1388.728" x2="608.706" y2="1406.472"/><line class="cls-1" x1="853.215" y1="1262.003" x2="842.721" y2="1244.258"/><line class="cls-1" x1="734.752" y1="1183.198" x2="714.138" y2="1183.414"/><line class="cls-1" x1="606.778" y1="1246.573" x2="596.658" y2="1264.534"/><line class="cls-1" x1="716.85" y1="1466.577" x2="737.464" y2="1466.361"/><line class="cls-1" x1="843.704" y1="1402.945" x2="853.824" y2="1384.984"/><path class="cls-1" d="M733.076,1608.723c11.66.196,36.014-11.016,43.593-20.832,7.578-9.817,14.045-21.259,24.959-27.149,18.096-9.767,43.448-1.475,58.882-15.065,11.728-10.326,13.103-29.976,26.559-37.919,8.249-4.87,18.523-3.738,28.078-4.429,19.128-1.384,38.411-13.405,50.332-28.427"/><path class="cls-1" d="M853.824,1384.984c9.415-14.19,22.991-8.26,33.686-19.34,11.025-11.421,13.125-23.892,14.105-34.066.769-7.988-3.343-16.341-.513-23.85,1.873-4.968,6.466-8.489,8.548-13.373,3.299-7.741-.562-16.784-6.062-23.152-3.454-4-7.71-7.51-12.772-9.032-11.035-3.319-26.748,3.703-37.602-.168"/><path class="cls-1" d="M973.982,1460.176c6.326-9.694,7.738-36.409,2.033-46.481-5.705-10.072-13.444-18.893-20.675-27.932-7.232-9.039-13.269-20.085-12.114-31.603,1.906-18.999,22.676-34.279,18.75-52.966-1.454-6.92-6.161-12.63-9.324-18.954-6.765-13.524-6.06-30.505,1.803-43.422,4.398-7.225,10.751-13.075,15.392-20.146s7.88-19.667,4.22-27.292"/><path class="cls-1" d="M842.721,1244.258c-3.403-8.363,5.082-25.736,10.695-32.808,8.974-11.307,15.309-25.542,13.806-39.9-1.502-14.357-12.515-28.193-26.88-29.628-7.2-.719-14.326,1.567-21.525,2.305-7.199.738-15.47-.608-19.62-6.536-1.444-2.063-2.25-4.502-3.538-6.666-5.321-8.942-18.462-11.055-27.571-6.026-9.109,5.03-14.252,15.471-15.278,25.826-.587,5.924-.029,12.014-1.647,17.743-1.618,5.729-10.459,14.711-16.412,14.628"/><path class="cls-1" d="M716.693,1042.913c-13.668-.158-38.527,10.524-45.599,21.992-7.072,11.467-12.633,25.123-24.581,31.349-19.82,10.329-48.807-4.425-64.298,11.685-11.453,11.91-6.458,32.605-15.683,46.313-8.086,12.014-24.333,14.944-38.799,15.61s-34.684-3.957-43.443,6.873"/><path class="cls-1" d="M606.778,1246.573c4.372-13.765-14.289-25.841-12.638-40.189.591-5.14,6.487-20.767,10.224-24.346,2.144-2.054,4.589-3.94,7.467-4.667,5.202-1.314,10.455,1.359,15.569,2.982,6.873,2.182,14.567,2.445,21.152-.493,6.585-2.938,11.775-9.43,12.016-16.637.192-5.737-2.603-11.277-2.314-17.01.446-8.871,8.806-16.107,17.656-16.861,8.85-.754,17.551,4.013,23.193,10.873s8.584,15.568,10.249,24.293c1.258,6.592-.921,15.364,4.785,18.896"/><path class="cls-1" d="M733.697,1042.916c13.392-.804,30.521,6.361,40.721,13.979s19.31,16.993,30.885,22.292c14.824,6.787,32.792,6.449,45.852,16.208,13.836,10.339,19.031,29.858,33.845,38.737,6.302,3.777,13.973,5.344,19.371,10.328,3.706,3.421,5.942,8.105,8.907,12.186,6.97,9.596,18.37,15.832,30.211,16.524,6.644.388,17.731-1.901,22.074,3.489"/><path class="cls-1" d="M737.464,1466.361c9.614.572,23.262,11.399,29.561,18.684,2.879,3.33,15.284,10.543,18.745,13.262,8.431,6.624,20.843,4.275,30.452-.482,5.189-2.569,10.319-5.999,12.844-11.209,2.9-5.983,1.948-13.473,5.635-19.005,5.483-8.228,18.254-8.123,24.816-15.52,4.882-5.502-.203-22.83-3.948-29.162-3.597-6.082-13.572-9.657-11.866-19.985"/><path class="cls-1" d="M596.658,1264.534c-3.622,6.07-16.306,5.26-23.374,5.329-7.068.069-19.166,4.515-26.943,8.02-6.444,2.904-9.999,9.344-11.719,14.845-1.586,5.072-4.209,7.652-5.425,12.781-1.225,5.171-3.061,6.25-4.28,10.801-1.326,4.947-.601,8.64-1.318,14.359-.545,4.347,1.399,5.05,1.962,9.589.537,4.327,2.995,10.3,2.995,10.3,3.046,5.545,4.349,4.386,12.982,16.652,4.544,6.457,4.582,7.936,16.321,12.615,4.142,1.651,7.243,5.138,11.664,4.552,4.42-.586,8.663-2.407,13.122-2.469,5.064-.07,12.383,2.88,15.566,6.82"/><path class="cls-1" d="M477.492,1248.057c-6.531,12.456-10.757,20.272-12.739,33.479-.967,6.444.149,13.036,1.95,19.299,1.859,6.467,4.451,12.723,7.71,18.611,4.043,7.304,12.352,68.85,11.903,77.186-.238,4.421-2.108,8.739-1.604,13.137.654,5.712,5.158,10.323,6.324,15.952,2.672,12.9-15.753,20.657-15.143,33.559"/><path class="cls-1" d="M475.786,1191.46c-3.685,8.744,1.754,25.32,4.556,34.386,2.273,7.354,1.206,15.67-2.85,22.212"/><path class="cls-1" d="M608.706,1406.472c3.314,14.781-11.516,32.264-9.264,47.244.998,6.636,5.495,12.403,11.119,16.066,4.999,3.256,10.943,5.042,16.908,5.079,7.349.046,14.751-2.481,21.938-.948,5.993,1.278,11.007,5.207,16.353,8.201,10.362,5.802,24.488,7.74,33.368-.145,6.237-5.538,9.703-13.096,17.721-15.393"/><path class="cls-1" d="M484.426,1474.012c2.19,6.343,21.505,19.987,28.17,20.769,6.665.782,13.561-.007,19.994,1.904,8.397,2.494,14.869,9.238,22.922,12.683,14.518,6.211,32.487,1.093,46.1,9.094,10.352,6.085,15.736,18.468,26.038,24.638,9.959,5.965,23.163,5.282,32.299,12.444,3.564,2.794,6.247,6.613,9.934,9.243,4.145,2.957,10.789,5.447,15.21,7.972,14.301,8.17-1.671,29.408,30.98,35.961"/><polyline class="cls-1" points="1590.738 1610.752 1590.742 1554.061 1607.746 1554.059 1607.742 1610.75"/><polyline class="cls-1" points="1847.936 1462.209 1798.838 1433.868 1790.434 1448.42 1839.439 1476.943"/><polyline class="cls-1" points="1839.812 1179.188 1790.718 1207.537 1799.218 1222.264 1848.312 1193.915"/><polyline class="cls-1" points="1590.713 1044.83 1590.718 1101.521 1607.721 1101.523 1607.717 1044.832"/><polyline class="cls-1" points="1349.807 1193.376 1398.904 1221.718 1407.408 1206.994 1358.31 1178.652"/><polyline class="cls-1" points="1357.998 1476.281 1407.092 1447.932 1398.592 1433.205 1349.498 1461.554"/><path d="M1601.869,1265.477c16.627,0,32.3,6.444,44.131,18.144,11.84,11.709,18.457,27.327,18.631,43.977.363,34.615-27.503,63.071-62.118,63.434-.226.002-.446.004-.672.004-16.627,0-32.3-6.444-44.131-18.144-11.84-11.709-18.457-27.327-18.631-43.977-.176-16.768,6.189-32.601,17.921-44.582,11.733-11.981,27.428-18.676,44.197-18.852.227-.002.446-.004.672-.004M1601.869,1264.477c-.229,0-.453.001-.683.004-35.223.369-63.476,29.222-63.107,64.445.367,34.993,28.853,63.111,63.762,63.111.229,0,.453-.001.683-.004,35.223-.37,63.476-29.222,63.107-64.445-.367-34.993-28.853-63.111-63.762-63.111h0Z"/><path class="cls-1" d="M1607.742,1610.75c29.226-9.215,61.752-40.635,62.114-71.277.162-13.683-3.489-27.078-6.04-40.523s-3.962-27.644.526-40.571c4.488-12.927,16.284-24.169,29.968-24.088,5.391.032,10.644,1.766,15.526,4.053,10.061,4.712,18.962,11.877,25.715,20.698,10.232,13.365,17.904,32.067,34.512,34.804,12.251,2.019,21.941-10.644,34.239-12.357,12.141-1.691,11.735,8.007,35.137-4.545"/><path class="cls-1" d="M1847.936,1462.209c-2.683-53.947-85.066-59.982-84.062-98.944.257-9.989,27.19-7.61,30.121-17.163,4.287-13.971-2.964-22.015-7.621-23.708-13.283-4.83-21.592-18.628-23.357-29.527-2.822-17.42,35.264-55.993,54.943-57.323,12.698-.858,32.881-8.078,30.071-41.243"/><path class="cls-1" d="M1839.388,1179.394c-19.424-15.051-57.023-13.137-75.846,2.659-8.935,7.497-16.348,16.634-24.939,24.524-8.591,7.889-18.867,14.704-30.46,15.981-11.593,1.278-25.273-.314-29.487-11.19-1.644-4.242-4.084-7.958-11.104-9.884-6.604-1.812-9.184-.356-17.046,3.651-10.419,5.31-24.034-2.807-27.364-14.016-3.33-11.209,1.422-23.479,8.875-32.49s3.274-9.455,11.551-17.715c7.272-7.258,7.419-11.298,8.388-14.138,2.285-6.696.706-10.14-1.368-17.119-2.702-9.094-1.136-12.989-4.141-18.346-5.271-9.399-13.941-15.318-17.155-25.603-3.214-10.285-11.074-20.328-21.575-20.875"/><path class="cls-1" d="M1590.713,1044.83c-25.953,7.326-60.989,39.062-57.884,65.85,1.336,11.53,6.115,22.331,9.498,33.434,4.534,14.876,6.419,31.622-.6,45.499-7.019,13.877-22.423,24.335-39.178,22.284-11.182-1.369-17.993-10.574-22.757-20.782-4.765-10.208-13.132-20.918-24.387-20.42-9.903.439-17.773,9.607-27.672,10.127-6.787.356-13.029-3.429-19.641-5.002-16.893-4.019-38.381-9.909-49.381,3.091"/><path class="cls-1" d="M1357.998,1476.281c7.409,6.042,25.213,11.118,33.611,6.549,8.398-4.569,18-9.587,25.511-15.503,7.511-5.916,16.903-10.711,26.313-9.023,6.204,1.113,11.564,4.895,17.469,7.1,7.4,2.763,15.728,2.967,23.254.57,8.26-2.631,15.362-8.205,23.678-10.652,9.857-2.9,21.02-.948,29.307,5.126,8.287,6.074,13.511,16.13,13.713,26.403.222,11.255-5.179,22.597-2.246,33.465,2.988,11.075,13.752,18.296,18.619,28.684,5.16,11.012,3.043,23.861,3.951,35.989.908,12.127,7.458,24.567,19.56,25.763"/><path class="cls-1" d="M1349.807,1193.376c-5,12-9.446,34.126-4.764,46.407,3.869,10.149,13.186,17.35,23.131,21.716,9.945,4.366,20.73,6.388,31.141,9.481,5.791,1.72,11.743,3.947,15.747,8.471,4.005,4.524,5.303,11.975,1.341,16.536-2.3,2.648-5.896,3.892-8.211,6.528-4.399,5.01-2.361,13.36,2.549,17.87,4.911,4.51,11.74,6.142,18.263,7.519,6.524,1.377,13.354,2.794,18.511,7.021,10.75,8.812,9.402,26.665.873,37.641-8.529,10.976-21.969,16.74-34.85,21.964-17.944,7.278-37.057,15.224-47.86,31.294-4.463,6.638-10.03,12.85-12.715,20.384-1.221,3.426-3.739,9.642-3.465,15.348"/><path class="cls-1" d="M1594.829,896.655l-.174.964c5.266,21.538,13.386,56.455,41.298,65.694h0"/></svg>